<?xml version="1.0" encoding="UTF-8"?>
<!DOCTYPE svg PUBLIC "-//W3C//DTD SVG 1.1//EN" "http://www.w3.org/Graphics/SVG/1.1/DTD/svg11.dtd">
<!-- Creator: CorelDRAW 2020 (64-Bit) -->
<svg xmlns="http://www.w3.org/2000/svg" xml:space="preserve" width="120.081mm" height="88.9471mm" version="1.1" style="shape-rendering:geometricPrecision; text-rendering:geometricPrecision; image-rendering:optimizeQuality; fill-rule:evenodd; clip-rule:evenodd"
viewBox="0 0 601.85 445.8"
 xmlns:xlink="http://www.w3.org/1999/xlink"
 xmlns:xodm="http://www.corel.com/coreldraw/odm/2003">
 <defs>
  <style type="text/css">
   <![CDATA[
    .str3 {stroke:black;stroke-width:2.09;stroke-miterlimit:22.9256}
    .str2 {stroke:#1B1C1E;stroke-width:2.09;stroke-miterlimit:22.9256}
    .str1 {stroke:#1B1C1E;stroke-width:2.86;stroke-linecap:round;stroke-linejoin:round;stroke-miterlimit:22.9256}
    .str0 {stroke:#1B1C1E;stroke-width:2.63;stroke-linecap:round;stroke-linejoin:round;stroke-miterlimit:22.9256}
    .fil6 {fill:none;fill-rule:nonzero}
    .fil2 {fill:black;fill-rule:nonzero}
    .fil7 {fill:black;fill-rule:nonzero}
    .fil5 {fill:#16C3DE;fill-rule:nonzero}
    .fil0 {fill:#1B1C1E;fill-rule:nonzero}
    .fil1 {fill:#8C7265;fill-rule:nonzero}
    .fil3 {fill:#322015;fill-rule:nonzero;fill-opacity:0.772549}
    .fil4 {fill:#322015;fill-rule:nonzero;fill-opacity:0.878431}
   ]]>
  </style>
 </defs>
 <g id="Camada_x0020_1">
  <metadata id="CorelCorpID_0Corel-Layer"/>
  <g id="_1465454330848">
   <path class="fil0" d="M2.36 438.34c0,0 -13.29,4.67 23.16,6.11 36.63,1.44 229.85,2.16 249.79,0 19.93,-2.15 58.54,-0.9 7.18,-6.11 -51.36,-5.21 -104.15,-2.16 -156.05,-5.21 -51.72,-3.23 -116.36,-0.36 -124.09,5.21z"/>
   <path class="fil1" d="M243.89 260.92l25.86 158.56c0,0 -43.1,-8.26 -44.53,-16.34 -1.44,-8.08 -17.24,-110.08 -17.24,-110.08l35.91 -32.14z"/>
   <path class="fil2" d="M243.89 260.92l25.86 158.56c0,0 -43.1,-8.26 -44.53,-16.34 -1.44,-8.08 -17.24,-110.08 -17.24,-110.08l35.91 -32.14z"/>
   <path class="fil3" d="M232.4 304.55c0,0 -0.18,0 0,0l-0.18 0 0.18 0z"/>
   <path class="fil3" d="M232.22 304.55l-0.72 -0.18c0.36,-0.18 0.54,0 0.72,0.18z"/>
   <path class="fil4" d="M230.06 308.86c-0.18,0 -0.18,0.18 -0.36,0.18 0,-0.18 0.18,-0.18 0.36,-0.18z"/>
   <path class="fil4" d="M238.32 283.54c1.98,0.9 0.18,-0.36 2.15,0.36 -0.54,0 -0.9,0.18 0.18,0.54 1.08,0.18 0,-0.54 1.8,0l-0.72 0.18c0.72,0.54 2.16,0.72 1.98,0.9 -2.33,-0.54 0.54,1.26 0,1.62l0.18 0 0.9 0.9c0,0 0,0 0.18,0 -0.18,0 -0.18,0 -0.36,-0.18 1.08,0.54 1.62,1.26 1.26,1.62 -1.26,-0.36 -0.9,1.26 -1.98,0.9 0.36,0 0.54,-0.18 0.18,-0.54l-1.62 -0.54c-0.18,0.36 1.44,0.54 0.36,0.54 -1.98,-0.9 0.18,-0.54 0,-0.9 -0.54,0 -0.9,0 -1.26,0 0.18,-0.54 -0.36,-1.44 1.8,-1.08 -0.36,-0.36 -1.26,-0.54 -1.62,-0.54 1.44,0 -1.08,-0.72 0.18,-0.72 -1.98,-0.54 -1.26,0.54 -2.51,0.36 1.26,1.08 -0.36,1.26 -0.9,1.62 1.44,0.54 2.69,0.54 3.59,1.08 0.72,0.9 -0.9,0.36 -1.98,0.36 0.36,0.54 2.33,0.9 2.15,1.62l1.08 0c1.8,1.08 -0.9,0 -0.54,0.54 -0.54,-0.36 -1.08,-0.54 -0.9,-0.72 -0.72,-0.36 -1.08,-0.18 -1.26,0l0 -0.18c-1.08,-0.18 -2.16,-0.54 -1.8,0 1.26,0.18 0.72,0.72 1.26,0.9l0.36 0c-0.54,0.18 -0.36,0.54 -0.72,0.54l0.36 0.18c-0.54,0 -2.16,-0.36 -1.8,0 0.54,0.18 2.33,0.36 1.98,0.72 0.9,0.36 1.08,0 0.9,-0.54 0.18,0.36 1.62,1.08 1.8,0.72 1.08,0.54 -0.54,0.18 -0.18,0.54 -0.36,-0.18 -0.72,-0.18 -1.08,-0.36 1.44,0.54 -0.18,0.9 -1.26,0.36l1.08 0c-1.26,-0.54 -2.15,-0.36 -2.87,-0.72 1.8,0.9 -1.26,0.72 0.18,1.44l-0.9 -0.54c0.36,1.08 -2.15,0.9 -2.87,1.44 0.72,0 2.87,0.72 2.33,0 0.18,0.9 1.98,1.08 2.87,1.62 0.54,0.9 -2.15,-0.36 -2.87,-0.54l0.54 -0.18c-2.69,-0.36 0,1.8 -1.8,1.98 0.54,0.36 0.36,0 0.72,0 1.08,0.9 -0.36,0.18 -0.9,0.36 0,0.54 0.36,1.08 1.98,1.44 0.18,0.54 -0.9,-0.36 -1.44,-0.36l0.36 0.18 -1.98 -0.18c0.36,0.54 1.08,1.26 2.33,1.98 -0.54,0.72 -3.59,-1.08 -4.31,-0.72 0.72,0.72 1.26,0.36 1.8,0.54l-0.36 0.54c1.8,0.54 1.08,-0.36 3.05,0.54 -2.16,-0.36 -0.9,0.36 -2.33,0.36l-0.18 -0.18c-1.44,-0.36 -0.72,0.72 -1.08,0.9 0.9,0.18 1.08,-0.18 1.62,-0.36 0.54,0.72 -0.54,1.44 -2.51,1.08 0.18,0.36 0.72,1.08 1.62,1.08 0,0.9 -2.69,-0.72 -2.33,0.18l1.26 0.54c1.62,1.62 -2.33,0.72 -0.9,2.16l-1.62 -0.72c0.54,0.36 0.72,0.9 1.44,1.26l0.72 -0.18c1.26,0.9 -1.44,-0.18 -0.72,0.54 -0.54,-0.18 -1.44,-1.08 -1.98,-1.26 1.62,-1.08 -0.18,-3.59 2.16,-4.31 0.18,0.18 0.36,0.36 0.72,0.36 -0.36,-0.36 0.18,-0.54 -0.72,-0.72l-0.18 0c0.54,-0.18 -1.26,-1.44 -1.26,-1.62 1.26,0.36 -0.18,-1.08 1.62,0l-1.08 -0.72c0.72,0.18 1.62,0.54 2.16,0.54 0,-0.36 -0.72,-0.72 -1.44,-0.54 -0.36,-1.26 0.36,-2.51 1.44,-3.41l-1.08 0c-0.36,-0.36 1.98,-0.36 -0.36,-1.08 1.08,-0.18 -0.18,-1.62 2.33,-0.72 -2.15,-1.26 -0.54,-1.62 0.18,-2.33 1.98,0.9 0.72,-0.36 1.8,-0.18 -1.62,-0.72 -1.8,0 -2.87,-0.36 2.69,0.18 -1.08,-2.69 3.23,-1.62 -0.18,-0.18 -0.36,-0.18 -0.54,-0.18 0,-0.18 -0.54,-0.54 -0.72,-0.9 0.72,0.18 0.9,0.54 1.26,0.36 0,-0.36 -1.26,-0.54 -1.8,-0.9 1.08,-0.18 1.8,-0.9 3.41,-0.36 -0.36,-0.36 -1.26,-0.9 -1.62,-0.72 1.62,-0.36 0,-0.9 1.26,-1.44 -0.18,0.36 -1.8,-0.54 -1.26,0.18 -2.15,-1.26 0.9,-1.08 0,-2.33l1.62 0.18c0.36,-0.36 -1.08,-0.9 -1.62,-0.72 -0.72,-1.08 0.36,-1.08 0.54,-1.62 -0.18,-0.18 -0.54,-0.18 -0.36,0l0.18 -0.72c0.36,0 1.26,0 2.15,0.36 -1.08,0 -1.62,0 -1.26,0.54z"/>
   <path class="fil3" d="M229.16 327c-0.36,-0.18 -1.08,-0.18 -1.26,-0.54l0.72 -0.18 0.54 0.72z"/>
   <path class="fil4" d="M228.44 325.03l-0.18 -0.72 1.98 0.9c-0.54,0.36 -1.44,-0.54 -1.8,-0.18z"/>
   <path class="fil4" d="M228.27 323.23l-0.54 -0.18c0.18,0 0.36,0 0.54,0.18z"/>
   <path class="fil4" d="M228.98 323.59l1.44 0.72 -1.26 0 -0.18 -0.36c-0.36,-0.36 -0.54,-0.54 -0.72,-0.72l1.08 0.36c-0.18,0 -0.54,0 -0.36,0z"/>
   <path class="fil4" d="M229.34 323.23c0.18,0.18 0.18,0.18 0.36,0.36 -0.18,-0.18 -0.18,-0.18 -0.36,-0.36z"/>
   <path class="fil4" d="M227.55 320.72c0.36,0.36 1.26,0.54 1.8,0.9 0.18,0.72 -1.62,-0.36 -1.26,0.36 1.44,0 0.72,0.72 1.26,1.26 -1.08,-0.9 -1.8,-1.62 -1.98,-2.15l0.9 0.36c0.18,-0.18 -0.36,-0.36 -0.72,-0.72z"/>
   <path class="fil4" d="M230.96 319.64l-1.44 -0.36c0.54,0.36 0.36,0.9 1.62,1.62 -0.36,0.18 -0.9,-0.18 -1.26,-0.18 0.54,0.54 0.9,0.9 0,0.54 -0.36,-1.26 -0.72,-1.26 -0.9,-2.16 -0.36,-0.18 -0.36,0 -0.36,0.18l-0.36 -0.9c1.44,0.72 1.98,0.18 2.69,1.26z"/>
   <path class="fil4" d="M230.24 318.38c-0.36,0.36 -1.62,-0.18 -2.33,-0.72l1.44 -0.18c0,0.18 -0.36,0.36 0.9,0.9z"/>
   <path class="fil4" d="M230.6 317.84c-0.54,-0.54 -1.98,-1.44 -0.36,-1.08 -0.54,0.36 1.44,1.08 0.36,1.08z"/>
   <path class="fil4" d="M230.78 314.43l0.54 1.08c1.62,0.9 0.72,-0.18 1.62,0 0,0.9 -0.36,0.36 -1.62,0.36 0,0.18 -0.9,0 -1.62,0 1.62,-0.18 -2.51,-2.15 1.08,-1.44z"/>
   <polygon class="fil4" points="231.68,316.77 230.96,316.59 231.68,316.41 "/>
   <path class="fil4" d="M229.7 311.92c-1.8,-1.44 1.44,-0.36 0.9,-1.26 -0.18,0 -0.36,-0.18 -0.54,-0.18l0.36 -0.36 -0.36 -0.18c1.26,0.54 1.8,0.36 2.87,0.54 1.08,1.08 -1.62,-0.36 -0.36,0.54 0.54,0.18 1.44,0.54 1.98,0.54 -0.72,0 -1.44,-0.18 -2.15,-0.36 -0.18,0.18 0.54,0.54 0.9,0.72 -0.9,0 -2.69,-0.72 -2.33,-0.18 0.9,0.72 1.8,0.54 1.08,0.9 -1.8,-1.08 0,0.72 -1.26,0.36 0.18,0.54 1.26,1.44 1.98,1.62 -1.44,-0.72 -2.87,-0.9 -3.41,-0.9l1.62 0 -1.62 -1.08c0.54,0 0.54,-0.36 0.36,-0.72l0 0z"/>
   <path class="fil4" d="M234.37 311.74c0.18,0 0.18,0 0.36,0 0,0 -0.18,0 -0.36,0z"/>
   <polygon class="fil4" points="232.93,314.97 233.29,314.97 233.83,315.33 "/>
   <path class="fil4" d="M235.81 311.92c0,0.18 -0.54,-0.18 -0.54,-0.18l0.9 0.18 -0.36 0z"/>
   <polygon class="fil4" points="234.91,311.02 234.01,310.3 234.91,310.48 "/>
   <path class="fil5" d="M182.83 2.69c0,0 20.83,-1.44 36.63,0 15.8,1.44 24.6,20.11 24.6,20.11 0,0 58,4.13 58.9,4.85 0.9,0.54 7.36,33.22 -21.01,48.84 -22.99,12.57 -47.23,12.57 -47.23,12.57 0,0 -3.77,11.85 -4.31,21.55 -0.54,9.52 3.59,17.6 10.42,30.35 6.82,12.75 20.11,40.4 17.6,73.44 -0.72,8.98 -5.57,29.63 -12.39,54.77 -2.15,7.9 -4.49,16.34 -7,24.96 -1.62,5.93 -3.41,11.85 -5.21,17.96 -17.78,61.23 -38.61,126.96 -38.61,126.96 0,0 -76.32,0 -107.03,0 -30.71,0 -54.95,-13.65 -44.35,-77.22 10.06,-61.05 39.33,-99.66 114.39,-279.95 -0.18,-0.36 5.57,-74.34 24.6,-79.19z"/>
   <path class="fil6 str0" d="M245.68 269c-2.16,7.9 -4.49,16.34 -7,24.96 -1.62,5.93 -3.41,11.85 -5.21,17.96"/>
   <path class="fil6 str0" d="M58.21 353.4c0,0 -2.51,28.73 25.68,39.51 28.19,10.59 62.85,10.24 62.49,45.97"/>
   <path class="fil5" d="M201.87 177.24c0,0 11.13,6.29 17.42,47.59 6.29,41.3 28.73,184.6 28.73,184.6 0,0 43.46,-2.51 41.3,29.45l-121.93 0 -6.64 -190.17c0.18,-0.18 20.47,-76.5 41.12,-71.47z"/>
   <path class="fil6 str0" d="M201.87 177.24c0,0 11.13,6.29 17.42,47.59 6.29,41.3 28.73,184.6 28.73,184.6 0,0 43.46,-2.51 41.3,29.45"/>
   <path class="fil0" d="M181.94 1.97c0,0 5.39,4.13 3.59,13.29 -1.8,9.16 -12.57,31.43 -12.75,41.66 -0.18,10.24 7.9,41.3 0,45.79 -4.31,2.51 -15.26,1.44 -31.43,-17.24 -16.34,-18.68 -22.27,-27.47 -13.65,-42.2 8.62,-14.72 39.33,-52.26 54.23,-41.3z"/>
   <path class="fil0 str1" d="M288.42 25.68c0,0 -2.15,11.49 3.59,15.8 5.75,4.31 11.85,1.08 11.85,1.44 0,0 1.98,-7.18 -0.18,-14.9 -0.18,-0.54 -0.54,-0.9 -1.08,-0.9 -3.05,-0.54 -13.11,-1.62 -14.19,-1.44z"/>
   <g>
    <path class="fil5" d="M173.5 438.7l45.61 0c0,0 6.64,-29.45 -42.92,-28.55 0,0 25.68,-39.33 20.11,-79.73 -5.75,-41.84 -52.08,-63.21 -94.1,-29.99l71.29 138.27zm0 0l0 0 0 0z"/>
   </g>
   <path class="fil6 str0" d="M205.46 438.7c0,0 0.54,-10.06 -3.59,-15.26"/>
   <path class="fil6 str0" d="M189.84 438.7c0,0 -0.36,-10.42 -5.93,-13.83"/>
   <path class="fil6 str0" d="M276.39 438.7c0,0 0.54,-10.06 -3.59,-15.26"/>
   <path class="fil6 str0" d="M263.64 438.7c0,0 -0.36,-10.42 -5.93,-13.83"/>
   <path class="fil6 str0" d="M229.54 438.57c0,0 6.64,-29.45 -42.92,-28.55 0,0 25.68,-39.33 20.11,-79.73 -5.75,-41.84 -52.08,-63.21 -94.1,-29.99"/>
   <path class="fil2" d="M234.73 88.71c0,0 -14.37,0.36 -30.17,0 0,0 19.75,22.63 30.17,22.99 3.95,0.18 -4.67,0.72 -4.31,-3.23 0.72,-7.18 4.31,-19.75 4.31,-19.75z"/>
   <line class="fil6 str1" x1="176.19" y1="410.32" x2="165.59" y2= "410.32" />
   <path class="fil0" d="M599.79 437.02c0,0 11.48,3.28 -19.81,4.29 -31.3,1.01 -196.63,1.51 -213.66,0 -17.04,-1.51 -50.1,-0.63 -6.18,-4.29 43.92,-3.66 89.1,-1.51 133.4,-3.66 44.3,-2.27 99.58,-0.13 106.26,3.66z"/>
   <path class="fil0" d="M388.65 182.59c-7.82,5.43 -18.93,12.12 -18.93,12.12 -8.83,-21.45 1.64,-48.59 4.16,-48.71 0,0 14.13,10.22 14.77,36.6z"/>
   <path class="fil5" d="M396.1 176.79c-0.76,1.14 -3.79,3.28 -7.45,5.81 -0.76,-26.25 -14.77,-36.47 -14.77,-36.47 2.52,-0.13 5.81,2.9 12.12,10.35 6.31,7.57 10.1,20.32 10.1,20.32z"/>
   <path class="fil6 str2" d="M388.65 185.37c0,-1.01 0,-1.89 0,-2.9"/>
   <path class="fil0" d="M438.63 206.95c0,0 -7.07,-10.98 -11.74,-19.18 12.12,-23.35 29.15,-26.38 29.15,-26.38 2.27,1.14 -0.13,30.04 -17.42,45.56z"/>
   <path class="fil5" d="M456.04 161.39c0,0 -17.16,3.03 -29.15,26.38 -2.15,-3.79 -3.91,-7.07 -4.16,-8.46 0,0 8.96,-9.84 17.92,-13.88 8.96,-4.04 13.25,-5.17 15.4,-4.04z"/>
   <path class="fil6 str2" d="M426.89 187.77c-0.38,0.88 -0.88,1.64 -1.26,2.52"/>
   <path class="fil5" d="M383.48 178.17c0,0 -11.86,5.93 -15.4,20.57 -3.53,14.64 -0.5,30.04 0,35.72 0.51,5.68 0.76,13.5 -0.25,24.36 -1.01,10.85 2.65,34.58 22.72,62.22 20.07,27.64 62.47,61.34 67.39,88.97 4.92,27.64 122.8,6.44 122.8,6.44 0,0 5.93,-26.38 -5.43,-77.87 -5.43,-24.61 -20.82,-44.17 -27.64,-50.36 -12.37,-11.11 -32.43,-24.86 -54.39,-30.79 -38.37,-10.22 -41.39,-16.91 -52.25,-30.67 0,0 5.68,-10.6 2.02,-27.01 -4.04,-17.92 -16.91,-23.22 -20.19,-24.1 -4.92,-1.39 -28.4,-3.53 -39.38,2.52z"/>
   <path class="fil5" d="M443.3 229.67c0,0 -11.23,43.16 -40.64,45.31 -22.46,1.64 -34.07,-30.79 -34.07,-30.79 0,-3.79 -0.25,-7.07 -0.51,-9.72 -0.25,-2.27 -0.88,-6.31 -1.26,-11.11 3.41,7.07 9.59,14.01 16.79,17.16 6.82,3.03 15.4,4.29 25.75,3.53 7.07,-0.51 12.62,-2.27 17.16,-4.54 10.48,-5.17 14.51,-12.75 14.51,-12.75 0.76,1.01 1.51,2.02 2.27,2.9z"/>
   <path class="fil5" d="M424.49 339.46c0,0 -0.38,3.41 -1.26,9.21 -0.38,2.4 -0.88,5.05 -1.39,8.08 -3.28,17.42 -10.1,44.42 -22.97,64.24 0,0 -8.08,-0.25 -12.49,5.68 -4.29,5.93 -2.4,12.49 -2.4,12.49 0,0 28.02,0 32.81,0 4.29,0 13.25,-24.48 31.42,-50.48 2.27,-3.16 4.54,-6.31 7.07,-9.47 23.1,-29.15 24.74,-56.79 24.74,-56.79l-55.53 17.04z"/>
   <path class="fil5" d="M442.41 397.52c-14.39,22.46 -21.71,41.65 -25.62,41.65 -4.92,0 -32.81,0 -32.81,0 0,0 -1.89,-6.44 2.4,-12.49 4.29,-5.93 12.49,-5.68 12.49,-5.68 5.81,-8.83 10.35,-19.18 13.88,-29.41 0,0.13 21.08,-1.77 29.66,5.93z"/>
   <path class="fil5" d="M587.55 396.38c0,0 -5.81,11.11 -35.72,10.6 -29.91,-0.51 -93.01,-7.82 -119.01,1.14 -26,8.96 -22.97,31.05 -18.17,31.05 4.92,0 0,0 17.04,0 17.04,0 81.15,0 128.6,0 47.45,0 40.51,-38.87 31.3,-49.35 -9.21,-10.48 -11.11,-21.58 -11.11,-21.58 0,0 1.89,22.21 1.51,35.46l5.55 -7.32z"/>
   <path class="fil5" d="M533.53 413.42c-38.11,5.43 -58.43,13.76 -91.37,14.64 -32.94,0.76 -22.97,-12.12 -22.97,-12.12 3.28,-3.03 7.7,-5.81 13.76,-7.95 26,-8.96 89.1,-1.64 119.01,-1.14 1.77,0 3.53,0 5.17,0 0,0 0,0 0,0 0.76,0.25 13.38,1.39 -23.6,6.56z"/>
   <path class="fil6 str2" d="M393.45 439.16c0,0 -2.15,-5.55 2.15,-9.72"/>
   <path class="fil6 str2" d="M405.44 430.33c0,0 -2.4,3.79 -0.5,8.83"/>
   <path class="fil7 str3" d="M405.18 220.96c0,0 -3.91,-2.02 -5.93,-5.05 -2.02,-3.16 3.03,-3.66 6.31,-3.66 3.28,0.13 6.31,1.01 4.54,3.91 -1.89,2.9 -4.92,4.8 -4.92,4.8z"/>
   <path class="fil5" d="M451.5 239.26c0,0 -10.1,53.51 -27.51,72.57 -21.71,23.73 -37.99,2.65 -37.99,2.65 -16.15,-24.74 -19.18,-45.69 -18.17,-55.66 0.63,-5.68 0.76,-10.48 0.76,-14.51 0,0 11.74,32.43 34.07,30.79 29.41,-2.15 40.64,-45.31 40.64,-45.31 2.78,3.53 5.17,6.69 8.2,9.47z"/>
   <path class="fil5" d="M419.07 174.89c-0.88,1.64 -4.04,7.19 -8.08,14.89 -3.16,6.06 -9.97,6.06 -13.38,-0.76 -2.78,-5.68 -6.31,-11.48 -7.45,-13.25 9.59,-2.4 22.21,-1.77 28.9,-0.88z"/>
   <path class="fil6 str2" d="M587.55 396.38c0,0 -5.81,11.11 -35.72,10.6 -29.91,-0.51 -93.01,-7.82 -119.01,1.14"/>
   <path class="fil6 str2" d="M448.35 388.68c2.27,-3.16 4.54,-6.31 7.07,-9.47 23.1,-29.15 24.74,-56.79 24.74,-56.79"/>
   <path class="fil6 str2" d="M424.49 339.46c0,0 -0.38,3.41 -1.26,9.21 -0.38,2.4 -0.88,5.05 -1.39,8.08"/>
   <path class="fil2" d="M591.71 389.82c-9.34,-10.6 -11.11,-21.58 -11.11,-21.58 0,0 0,0 0,0.13l0 0.13c0.25,1.51 0.38,3.16 0.5,4.67 1.26,11.74 1.39,21.08 1.14,28.14 1.26,-0.76 2.27,-1.39 2.9,-2.15 0.5,-0.51 1.01,-0.88 1.26,-1.26l-1.39 1.77 -3.03 4.04c-0.51,8.46 -1.51,12.75 -1.51,12.75 0,0 -117.87,21.08 -122.8,-6.44 -0.38,-1.89 -0.88,-3.79 -1.51,-5.81 -9.21,0.63 -17.29,1.77 -23.35,3.91 -26,8.96 -22.97,31.05 -18.17,31.05 4.92,0 0,0 17.04,0l128.6 0c47.58,0 40.76,-38.74 31.43,-49.35zm-5.17 8.08l1.01 -1.39c-0.13,0.13 -0.38,0.63 -1.01,1.39z"/>
  </g>
 </g>
</svg>
